<?xml version="1.0" encoding="UTF-8" standalone="no" ?>
<!DOCTYPE svg PUBLIC "-//W3C//DTD SVG 1.1//EN" "http://www.w3.org/Graphics/SVG/1.1/DTD/svg11.dtd">
<svg xmlns="http://www.w3.org/2000/svg" xmlns:xlink="http://www.w3.org/1999/xlink" version="1.1" width="190" height="290" viewBox="0 0 316.67 483.33" xml:space="preserve">
<desc>Created with Fabric.js 3.6.3</desc>
<defs>
</defs>
<g transform="matrix(1 0 0 1 158.45 239)"  >
<g style=""   >
		<g transform="matrix(1 0 0 1 87.07 72.12)"  >
<path style="stroke: rgb(0,0,0); stroke-width: 1; stroke-dasharray: none; stroke-linecap: butt; stroke-dashoffset: 0; stroke-linejoin: miter; stroke-miterlimit: 4; fill: rgb(255,255,255); fill-rule: nonzero; opacity: 1;" vector-effect="non-scaling-stroke"  transform=" translate(-398.59, -308.2)" d="M 327 469.1999969482422 Q 423 469.1999969482422 462 376.1999969482422 Q 474 318.1999969482422 454 287.1999969482422 Q 439 239.1999969482422 379 215.1999969482422 Q 353 202.1999969482422 341 172.1999969482422 L 343 151.1999969482422 L 329 147.1999969482422 L 328 198.1999969482422 Q 364 246.1999969482422 373 297.1999969482422 Q 377 345.1999969482422 372 380.1999969482422 Q 364 430.1999969482422 327 469.1999969482422" stroke-linecap="round" />
</g>
		<g transform="matrix(1 0 0 1 -46.66 63.88)"  >
<path style="stroke: rgb(0,0,0); stroke-width: 1; stroke-dasharray: none; stroke-linecap: butt; stroke-dashoffset: 0; stroke-linejoin: miter; stroke-miterlimit: 4; fill: rgb(255,255,219); fill-rule: nonzero; opacity: 1;" vector-effect="non-scaling-stroke"  transform=" translate(-319.78, -300.01)" d="M 382.6666629675663 467.9999981504498 Q 303.2727235736269 471.0303011807529 259.63635993726325 424.9696951201468 Q 191.75757205847538 348.6060587565104 252.363632664536 261.3333314837831 Q 293.57575387665725 214.06060421105587 331.1515114524148 200.12121027166194 Q 368.7272690281724 175.15151515151513 338.42423872514206 130.9090909090909 L 384.8727361505682 146.61818070845172 L 383.7818270596591 200.07272616299716 Q 413.96364524147725 234.90909090909093 428.5090997869318 296.72727272727275 Q 432.8727361505682 333.8909135298295 428.5090997869318 364.80000443892044 Q 424.5090997869318 401.89091352982956 414.3272816051136 424.07273171164775 Q 396.09695342092806 458.32727790601325 382.6666629675663 467.9999981504498" stroke-linecap="round" />
</g>
		<g transform="matrix(0.99 0 0 0.99 25.89 98.21)"  >
<path style="stroke: rgb(0,0,0); stroke-width: 1; stroke-dasharray: none; stroke-linecap: butt; stroke-dashoffset: 0; stroke-linejoin: miter; stroke-miterlimit: 4; fill: none; fill-rule: nonzero; opacity: 1;" vector-effect="non-scaling-stroke"  transform=" translate(-393.12, -335.92)" d="M 380.31999511718755 469.1199951171875 Q 409.9199951171875 415.5199951171875 410.7199951171875 393.1199951171875 Q 410.7199951171875 394.71999511718747 413.9199951171875 369.1199951171875 Q 413.9199951171875 323.5199951171875 409.9199951171875 313.1199951171875 Q 408.31999511718755 291.5199951171875 376.31999511718755 241.1199951171875 L 372.31999511718755 202.71999511718752" stroke-linecap="round" />
</g>
		<g transform="matrix(1.11 0 0 1.02 18.91 131.61)"  >
<path style="stroke: rgb(0,0,0); stroke-width: 1; stroke-dasharray: none; stroke-linecap: butt; stroke-dashoffset: 0; stroke-linejoin: miter; stroke-miterlimit: 4; fill: none; fill-rule: nonzero; opacity: 1;"  transform=" translate(-388.09, -366.32)" d="M 373.1199951171875 464.31999511718755 Q 390.7199951171875 449.1199951171875 397.9199951171875 405.1199951171875 Q 405.11999511718756 362.71999511718747 395.51999511718753 341.1199951171875 Q 385.91999511718745 309.9199951171875 373.1199951171875 293.1199951171875 L 373.1199951171875 268.3199951171875" stroke-linecap="round" />
</g>
		<g transform="matrix(1 0 0 1 7.97 166.71)"  >
<path style="stroke: rgb(0,0,0); stroke-width: 1; stroke-dasharray: none; stroke-linecap: butt; stroke-dashoffset: 0; stroke-linejoin: miter; stroke-miterlimit: 4; fill: none; fill-rule: nonzero; opacity: 1;" vector-effect="non-scaling-stroke"  transform=" translate(-375.41, -403.03)" d="M 366.8965396586274 465.10344406654093 Q 379.31033235384405 449.2413751010237 382.06895295278105 422.34482337688576 Q 384.8275735517181 389.93103027343744 379.99998750357827 372.6896509630926 Q 375.1724014554385 355.4482716527478 372.41378085650143 351.99999579067884 L 372.41378085650143 340.96551303205814" stroke-linecap="round" />
</g>
		<g transform="matrix(1 0 0 1 -14.75 168.09)"  >
<path style="stroke: rgb(0,0,0); stroke-width: 1; stroke-dasharray: none; stroke-linecap: butt; stroke-dashoffset: 0; stroke-linejoin: miter; stroke-miterlimit: 4; fill: none; fill-rule: nonzero; opacity: 1;" vector-effect="non-scaling-stroke"  transform=" translate(-352.7, -404.41)" d="M 367.58619480836154 465.10344406654093 Q 346.2068851665995 444.4137888941271 340.68964396872536 421.6551682044719 Q 336.5517130703198 398.206892342403 342.75860941792814 376.1379268251616 Q 346.2068851665994 364.4137888941271 363.448263909956 349.24137510102366 L 364.8275742094245 343.7241337217133" stroke-linecap="round" />
</g>
		<g transform="matrix(1 0 0 1 -60.22 98.56)"  >
<path style="stroke: rgb(0,0,0); stroke-width: 1; stroke-dasharray: none; stroke-linecap: butt; stroke-dashoffset: 0; stroke-linejoin: miter; stroke-miterlimit: 4; fill: none; fill-rule: nonzero; opacity: 1;" vector-effect="non-scaling-stroke"  transform=" translate(-307.31, -335.1)" d="M 334.48274762111697 464.4137888941271 Q 264.1379223482222 418.206892342403 257.9310260006139 361.655168204472 Q 253.79309510220833 323.7241337217134 275.8620598937047 302.34482337688576 Q 282.7586113910474 286.48275441136855 338.6206785195226 250.62068544585128 Q 359.31033301155037 241.65516820447195 358.62067786181615 205.7930992389547" stroke-linecap="round" />
</g>
		<g transform="matrix(1.01 0 0 1.01 -44.55 136.83)"  >
<path style="stroke: rgb(0,0,0); stroke-width: 1; stroke-dasharray: none; stroke-linecap: butt; stroke-dashoffset: 0; stroke-linejoin: miter; stroke-miterlimit: 4; fill: none; fill-rule: nonzero; opacity: 1;" vector-effect="non-scaling-stroke"  transform=" translate(-322.46, -372)" d="M 352.4137815142078 463.03447854929954 Q 300.6896452841381 431.310340618265 292.413783487327 403.7241337217133 Q 286.2068871397187 378.89654751481675 293.1034386370613 352.6896509630926 Q 303.4482658830753 325.79309923895465 339.31033366925686 309.93103027343744 Q 357.931022712082 301.6551682044719 356.5517124126134 280.96551303205814" stroke-linecap="round" />
</g>
		<g transform="matrix(1 0 0 1 54.4 -161.05)"  >
<path style="stroke: rgb(0,0,0); stroke-width: 1; stroke-dasharray: none; stroke-linecap: butt; stroke-dashoffset: 0; stroke-linejoin: miter; stroke-miterlimit: 4; fill: rgb(56,227,2); fill-rule: nonzero; opacity: 1;" vector-effect="non-scaling-stroke"  transform=" translate(-420.85, -74.28)" d="M 382.7586081025154 146.3448254815463 Q 373.79309115597005 128.4137909987877 482.0689496642491 24.965515136718746 Q 415.1724001400257 64.27585996430496 402.06895229507467 77.37930824016702 Q 422.0689516373681 42.20689444706357 466.2068812203609 2.2068944470635774 Q 388.2758493003895 54.620687550511846 386.20688385118666 76.68965306775323 Q 391.03446989932644 40.13792892982219 393.7930904982635 35.31034272292564 Q 357.93102271208187 116.68965306775323 360.6896433110189 139.4482737574084 L 382.7586081025154 146.3448254815463" stroke-linecap="round" />
</g>
</g>
</g>
</svg>